{"glyphs":{":":{"x_min":0,"x_max":265,"ha":265,"o":"m 72 0 l 96 121 l 217 121 l 193 0 z m 154 410 l 178 530 l 298 530 l 274 410 z"},"$":{"x_min":0,"x_max":608,"ha":608,"o":"m 282 -60 l 294 0 q 203 6 140 27 l 164 150 l 212 150 l 211 142 q 206 96 206 88 q 206 41 300 34 l 361 339 l 340 354 q 274 402 250 438 q 227 473 227 524 q 227 606 290 666 q 353 726 438 726 l 450 783 l 479 783 l 468 723 q 553 718 636 689 l 612 572 l 564 572 l 565 582 q 571 624 571 635 q 571 659 540 675 q 509 691 462 691 l 405 410 l 446 379 q 510 330 533 295 q 556 261 556 215 q 556 130 490 69 q 424 8 324 0 l 312 -60 z m 331 34 q 471 56 471 193 q 471 231 455 255 q 439 279 387 319 z m 379 431 l 432 690 q 376 681 342 641 q 308 601 308 545 q 308 491 379 431 z"},"?":{"x_min":0,"x_max":471,"ha":471,"o":"m 148 0 l 167 96 l 264 96 l 244 0 z m 187 193 l 188 202 q 198 250 216 278 q 233 306 283 356 l 325 397 q 440 512 440 604 q 440 651 410 681 q 380 710 332 710 q 235 710 220 643 q 213 612 208 593 l 206 584 l 157 584 l 182 708 q 232 725 278 733 q 323 741 364 741 q 443 741 493 704 q 543 666 543 607 q 543 558 518 523 q 493 488 419 435 l 385 409 q 295 344 280 193 z"},"<":{"x_min":0,"x_max":608,"ha":608,"o":"m 680 554 l 665 489 l 217 283 l 585 81 l 574 24 l 97 289 z"},"'":{"x_min":0,"x_max":231,"ha":231,"o":"m 223 506 l 174 771 l 295 771 l 252 506 z"},"=":{"x_min":0,"x_max":608,"ha":608,"o":"m 75 178 l 85 232 l 616 232 l 605 178 z m 108 346 l 119 400 l 649 400 l 638 346 z"},"a":{"x_min":0,"x_max":608,"ha":608,"o":"m 413 0 l 458 223 q 397 116 322 52 q 248 -12 183 -12 q 131 -12 105 19 q 79 49 79 110 q 79 269 190 406 q 302 542 432 542 q 446 542 467 539 q 489 536 519 530 l 615 530 l 535 126 q 526 86 526 57 q 526 41 536 38 q 545 34 597 31 l 605 30 l 600 0 z m 472 296 l 507 466 q 479 480 449 488 q 419 495 387 495 q 314 495 269 429 q 232 376 207 288 q 181 200 181 130 q 181 95 192 77 q 204 60 228 60 q 321 60 472 296 z"},"L":{"x_min":0,"x_max":572,"ha":572,"o":"m 554 0 l 23 0 l 29 30 l 39 31 q 100 35 113 47 q 125 60 139 126 l 232 596 q 240 637 240 666 q 240 682 231 685 q 222 688 170 692 l 161 693 l 167 723 l 450 723 l 444 693 l 435 692 q 374 688 361 676 q 348 663 335 596 l 241 126 q 233 83 233 66 q 233 50 245 46 q 257 42 309 42 l 395 42 q 482 42 496 52 q 511 62 528 135 l 531 145 l 583 145 z"},"3":{"x_min":0,"x_max":608,"ha":608,"o":"m 105 2 l 130 126 l 178 126 l 177 118 q 175 100 171 78 q 170 70 170 63 q 170 42 200 26 q 230 11 275 11 q 354 11 411 77 q 467 143 467 235 q 467 308 419 344 q 371 379 275 379 l 244 379 l 250 410 l 293 410 q 400 410 461 459 q 521 509 521 596 q 521 648 489 679 q 456 711 401 711 q 309 711 295 649 q 289 619 287 613 l 284 604 l 236 604 l 259 719 q 340 741 411 741 q 514 741 566 705 q 617 670 617 599 q 617 530 561 474 q 505 417 412 393 q 490 380 530 343 q 569 305 569 242 q 569 129 484 55 q 398 -18 268 -18 q 229 -18 188 -13 q 147 -8 105 2 z"},";":{"x_min":0,"x_max":265,"ha":265,"o":"m 118 0 l 72 0 l 96 121 l 217 121 l 195 12 q 162 -157 41 -157 l 47 -126 q 78 -126 89 -111 q 100 -95 111 -36 z m 154 410 l 178 530 l 298 530 l 274 410 z"},"J":{"x_min":0,"x_max":422,"ha":422,"o":"m -21 -135 l 5 -2 l 62 -2 l 61 -14 q 56 -46 55 -50 q 52 -64 52 -70 q 52 -89 65 -98 q 77 -108 102 -108 q 155 -108 179 -72 q 204 -37 225 72 l 330 596 q 337 637 337 666 q 337 682 328 685 q 319 688 268 692 l 258 693 l 264 723 l 547 723 l 542 693 l 532 692 q 471 688 458 676 q 445 663 432 596 l 339 132 q 310 -20 246 -82 q 183 -145 60 -145 q 41 -145 21 -142 q 0 -140 -21 -135 z"},"V":{"x_min":0,"x_max":656,"ha":656,"o":"m 307 -9 l 190 595 q 175 663 166 676 q 157 690 125 692 l 116 693 l 122 723 l 372 723 l 366 693 l 356 693 q 312 693 300 687 q 287 681 287 659 q 287 642 297 589 l 386 117 l 669 593 q 675 602 684 620 q 696 645 703 657 q 708 667 708 674 q 708 693 649 693 l 640 693 l 646 723 l 827 723 l 820 693 l 812 692 q 772 689 764 681 q 756 673 701 580 l 350 -9 z"},"\"":{"x_min":0,"x_max":376,"ha":376,"o":"m 230 530 l 194 771 l 291 771 l 261 530 z m 387 530 l 351 771 l 447 771 l 417 530 z"},"7":{"x_min":0,"x_max":608,"ha":608,"o":"m 153 0 q 167 86 204 144 q 242 201 401 378 l 629 632 l 231 632 l 250 723 l 707 723 l 693 654 q 505 464 392 292 q 280 119 267 0 z"},"S":{"x_min":0,"x_max":549,"ha":549,"o":"m 60 17 l 87 157 l 142 157 l 140 147 q 135 107 133 99 q 130 87 130 83 q 130 55 173 35 q 215 16 278 16 q 340 16 385 62 q 430 109 430 172 q 430 246 341 317 l 295 354 q 181 446 181 535 q 181 624 252 682 q 323 741 431 741 q 472 741 521 732 q 570 723 626 705 l 598 560 l 543 560 l 546 575 q 548 594 551 618 q 554 643 554 645 q 554 671 515 690 q 477 709 422 709 q 363 709 321 668 q 280 627 280 568 q 280 496 375 419 l 423 380 q 534 291 534 198 q 534 102 457 42 q 380 -18 256 -18 q 217 -18 168 -9 q 119 0 60 17 z"},"}":{"x_min":0,"x_max":337,"ha":337,"o":"m 85 -145 l 91 -114 q 156 -106 178 -75 q 201 -44 201 38 l 202 76 q 202 176 242 240 q 282 304 352 316 q 301 352 287 372 q 274 391 274 429 q 274 477 312 567 l 335 624 q 349 657 349 678 q 349 704 326 723 q 304 741 272 741 q 267 741 262 741 l 268 771 q 340 771 383 740 q 425 709 425 656 q 425 612 396 543 l 375 495 q 347 427 347 389 q 347 332 406 332 l 430 332 l 424 301 l 402 301 q 342 301 316 261 q 290 221 290 130 l 291 99 q 291 -145 85 -145 z"},"Z":{"x_min":0,"x_max":632,"ha":632,"o":"m 56 0 l 63 39 l 580 684 l 360 684 q 296 684 280 678 q 263 672 257 646 q 249 606 245 590 l 242 578 l 188 578 l 216 723 l 703 723 l 696 690 l 182 45 l 412 45 q 503 45 515 53 q 528 61 545 129 l 547 139 l 602 139 l 574 0 z"},"x":{"x_min":0,"x_max":510,"ha":510,"o":"m 259 269 l 200 403 q 165 479 155 487 q 145 496 92 500 l 83 500 l 89 530 l 248 530 l 344 322 l 366 340 q 461 417 461 468 q 461 496 440 530 l 536 530 q 542 513 542 500 q 542 458 512 424 q 482 390 379 312 l 356 294 l 437 126 q 474 52 485 43 q 495 34 547 31 l 556 30 l 550 0 l 390 0 l 275 242 l 233 204 q 133 115 133 50 q 133 23 150 0 l 46 0 q 44 14 44 21 q 44 62 73 98 q 102 134 211 227 z"},")":{"x_min":0,"x_max":310,"ha":310,"o":"m 196 771 q 342 661 342 429 q 342 259 255 108 q 168 -44 14 -145 l 20 -114 q 128 -22 180 112 q 261 319 261 527 q 261 668 193 741 z"},"&":{"x_min":0,"x_max":728,"ha":728,"o":"m 522 0 q 512 11 502 26 q 491 44 484 53 q 375 -19 281 -19 q 195 -19 137 39 q 78 97 78 181 q 78 358 308 436 q 287 503 287 545 q 287 626 346 683 q 406 741 491 741 q 550 741 587 707 q 624 673 624 618 q 624 487 411 415 q 458 285 545 139 q 624 219 624 329 q 624 344 613 348 q 603 352 551 355 l 540 355 l 546 386 l 793 386 l 787 355 l 778 355 q 751 354 735 354 q 720 354 711 345 q 702 335 688 298 l 683 285 q 648 190 564 112 l 575 96 q 604 53 620 44 q 637 35 697 31 l 704 30 l 698 0 z m 469 82 q 372 240 316 407 q 180 343 180 210 q 180 135 222 88 q 265 41 333 41 q 406 41 469 82 z m 402 442 q 539 511 539 630 q 539 670 523 689 q 508 709 477 709 q 433 709 405 670 q 377 631 377 570 q 377 519 402 442 z"},"_":{"x_min":0,"x_max":500,"ha":500,"o":"m 36 -63 l 48 0 l 452 0 l 439 -63 z"},"v":{"x_min":0,"x_max":558,"ha":558,"o":"m 237 -6 q 237 244 161 426 q 139 479 127 487 q 116 496 59 500 l 50 500 l 56 530 l 233 530 q 310 350 325 108 l 414 213 q 529 348 529 446 q 529 492 492 530 l 610 530 q 620 507 620 479 q 620 429 573 360 q 525 292 361 103 l 267 -6 z"},"O":{"x_min":0,"x_max":783,"ha":783,"o":"m 376 -18 q 253 -18 182 55 q 111 127 111 254 q 111 451 242 596 q 372 741 550 741 q 675 741 746 668 q 816 596 816 467 q 816 270 686 126 q 555 -18 376 -18 z m 220 236 q 220 138 270 78 q 319 18 400 18 q 519 18 615 156 q 710 294 710 466 q 710 577 662 642 q 613 707 531 707 q 406 707 313 566 q 220 425 220 236 z"},"(":{"x_min":0,"x_max":310,"ha":310,"o":"m 240 -145 q 94 -34 94 197 q 94 367 180 519 q 267 670 422 771 l 416 741 q 339 675 297 605 q 255 534 223 416 q 174 236 174 98 q 174 -42 242 -114 z"},"C":{"x_min":0,"x_max":714,"ha":714,"o":"m 648 44 q 498 -18 370 -18 q 250 -18 181 56 q 111 129 111 258 q 111 461 245 601 q 379 741 574 741 q 622 741 672 735 q 723 729 776 716 l 748 572 l 687 572 l 688 582 q 697 627 697 636 q 697 667 660 688 q 623 708 565 708 q 424 708 322 575 q 220 442 220 258 q 220 156 276 97 q 332 38 428 38 q 513 38 657 86 z"},"W":{"x_min":0,"x_max":878,"ha":878,"o":"m 221 -9 l 189 595 q 185 672 179 680 q 174 689 129 692 l 120 693 l 126 723 l 379 723 l 373 693 l 364 693 q 312 693 298 685 q 283 676 283 648 l 285 593 l 309 168 l 582 717 l 627 717 l 667 165 l 878 591 q 913 659 913 672 q 913 693 846 693 l 837 693 l 843 723 l 1042 723 l 1036 693 l 1027 692 q 972 689 966 683 q 960 678 916 591 l 618 -9 l 583 -9 l 544 566 l 259 -9 z"},"A":{"x_min":0,"x_max":747,"ha":747,"o":"m 0 0 l 6 30 l 15 31 q 61 33 72 42 q 83 51 130 125 l 507 735 l 543 735 l 658 133 q 671 67 684 50 q 697 33 735 31 l 747 30 l 741 0 l 470 0 l 476 30 l 491 30 q 562 30 562 54 q 562 79 554 124 l 535 223 l 234 223 l 173 125 q 136 66 136 49 q 136 30 196 30 l 208 30 l 202 0 z m 254 265 l 526 265 l 463 605 z"},"f":{"x_min":0,"x_max":379,"ha":379,"o":"m 70 -193 l 207 491 l 134 491 l 142 530 l 214 530 q 258 667 314 725 q 370 783 459 783 q 488 783 514 779 q 540 775 562 767 l 537 639 l 489 639 l 490 647 q 494 673 496 688 q 499 700 499 709 q 499 730 482 740 q 466 750 433 750 q 386 750 363 712 q 339 673 317 562 l 311 530 l 461 530 l 454 491 l 303 491 l 167 -193 z"},"Q":{"x_min":0,"x_max":788,"ha":788,"o":"m 921 -95 l 840 -184 q 816 -190 799 -190 q 705 -190 606 -141 q 507 -92 444 -13 q 417 -17 391 -17 q 259 -17 188 52 q 116 121 116 248 q 116 448 246 594 q 376 741 553 741 q 677 741 747 669 q 816 598 816 472 q 816 303 722 169 q 627 34 481 -3 q 609 -112 792 -112 q 859 -112 921 -95 z m 222 236 q 222 138 272 78 q 321 18 402 18 q 520 18 616 156 q 712 293 712 461 q 712 576 665 642 q 617 707 533 707 q 408 707 315 566 q 222 425 222 236 z"},"w":{"x_min":0,"x_max":805,"ha":805,"o":"m 221 -6 q 225 52 225 75 q 225 294 156 462 q 141 500 81 500 l 72 500 l 78 530 l 237 530 q 299 343 313 144 q 458 388 489 527 l 520 527 q 595 339 610 133 l 658 202 q 771 365 771 447 q 771 496 739 530 l 857 530 q 859 516 859 505 q 859 441 760 295 q 589 48 548 -6 l 516 -6 q 520 43 520 62 q 520 226 469 370 q 394 211 268 18 q 266 15 254 -6 z"},"-":{"x_min":0,"x_max":313,"ha":313,"o":"m 95 265 l 116 337 l 338 337 l 318 265 z"},"E":{"x_min":0,"x_max":568,"ha":568,"o":"m 544 0 l 23 0 l 29 30 l 39 31 q 100 35 113 47 q 125 60 139 126 l 232 596 q 240 637 240 666 q 240 682 231 685 q 222 688 170 692 l 161 693 l 167 723 l 661 723 l 636 596 l 582 596 l 583 605 l 593 660 q 593 684 510 684 l 352 684 l 295 395 l 427 395 q 469 395 481 399 q 493 404 497 423 q 500 433 503 446 l 505 455 l 544 455 l 513 295 l 474 295 l 475 304 q 478 327 478 336 q 478 355 419 355 l 287 355 l 241 126 q 236 99 236 73 q 236 53 249 48 q 262 42 308 42 l 385 42 q 472 42 485 50 q 498 59 514 124 l 517 132 l 571 132 z"},"s":{"x_min":0,"x_max":440,"ha":440,"o":"m 49 29 l 73 150 l 121 150 l 120 142 q 114 93 114 86 q 114 61 149 39 q 185 18 229 18 q 271 18 300 45 q 329 71 329 111 q 329 150 288 193 l 237 247 q 148 340 148 399 q 148 461 199 502 q 250 542 329 542 q 367 542 403 533 q 440 524 475 506 l 452 389 l 404 389 l 405 397 q 408 421 410 432 q 413 447 413 457 q 413 485 390 499 q 367 512 322 512 q 286 512 261 486 q 237 460 237 422 q 237 384 285 336 l 335 286 q 419 203 419 134 q 419 68 366 28 q 313 -12 227 -12 q 184 -12 139 -2 q 95 9 49 29 z"},">":{"x_min":0,"x_max":608,"ha":608,"o":"m 97 24 l 111 90 l 559 295 l 191 498 l 202 554 l 680 289 z"},"l":{"x_min":0,"x_max":289,"ha":289,"o":"m 90 0 l 219 645 q 227 685 227 714 q 227 730 218 733 q 208 737 156 740 l 147 741 l 153 771 l 340 771 l 212 126 q 204 86 204 57 q 204 41 213 38 q 222 34 274 31 l 283 30 l 277 0 z"},"8":{"x_min":0,"x_max":608,"ha":608,"o":"m 301 388 q 222 442 222 524 q 222 614 292 678 q 363 741 463 741 q 546 741 596 705 q 646 668 646 607 q 646 490 464 398 q 601 316 601 209 q 601 115 520 49 q 439 -18 325 -18 q 227 -18 172 26 q 116 70 116 149 q 116 285 301 388 z m 340 359 l 325 368 q 209 289 209 157 q 209 85 241 49 q 272 12 334 12 q 402 12 451 61 q 499 110 499 179 q 499 229 465 269 q 430 308 340 359 z m 436 418 q 562 476 562 594 q 562 653 534 682 q 507 711 451 711 q 394 711 354 668 q 315 626 315 565 q 315 489 436 418 z"},"\\":{"x_min":0,"x_max":458,"ha":458,"o":"m 375 -145 l 157 771 l 212 771 l 431 -145 z"},"e":{"x_min":0,"x_max":518,"ha":518,"o":"m 505 84 q 359 -12 247 -12 q 173 -12 129 38 q 84 88 84 173 q 84 316 184 429 q 284 542 409 542 q 456 542 487 514 q 519 485 519 441 q 519 343 428 280 q 337 216 186 209 l 185 184 q 185 114 214 79 q 243 43 302 43 q 400 43 514 128 z m 188 237 q 298 246 362 295 q 425 344 425 421 q 425 460 409 480 q 393 500 360 500 q 296 500 247 426 q 198 352 188 237 z"},"b":{"x_min":0,"x_max":596,"ha":596,"o":"m 88 -12 l 218 645 q 227 685 227 714 q 227 730 217 733 q 208 737 156 740 l 147 741 l 153 771 l 340 771 l 248 307 q 308 414 383 478 q 458 542 521 542 q 574 542 600 512 q 626 481 626 420 q 626 262 515 125 q 403 -12 274 -12 q 243 -12 214 -6 q 185 0 159 12 z m 233 234 l 198 64 q 228 50 258 42 q 289 35 319 35 q 392 35 437 102 q 473 154 498 242 q 524 331 524 401 q 524 436 512 453 q 501 471 478 471 q 384 471 233 234 z"},"%":{"x_min":0,"x_max":759,"ha":759,"o":"m 261 361 q 206 361 173 396 q 139 432 139 490 q 139 586 194 655 q 250 723 328 723 q 385 723 419 688 q 453 653 453 594 q 453 497 397 429 q 341 361 261 361 z m 211 485 q 211 392 270 392 q 314 392 351 455 q 387 519 387 598 q 387 693 328 693 q 282 693 247 630 q 211 566 211 485 z m 576 0 q 521 0 488 35 q 454 70 454 128 q 454 225 509 293 q 564 361 642 361 q 700 361 734 327 q 768 292 768 233 q 768 135 712 68 q 656 0 576 0 z m 526 123 q 526 30 585 30 q 630 30 666 94 q 702 157 702 236 q 702 332 643 332 q 597 332 562 268 q 526 205 526 123 z m 89 -18 l 754 741 l 818 741 l 153 -18 z"},"m":{"x_min":0,"x_max":944,"ha":944,"o":"m 103 0 l 183 404 q 191 444 191 473 q 191 489 182 492 q 173 496 121 500 l 112 500 l 118 530 l 305 530 l 261 313 q 407 542 527 542 q 568 542 588 519 q 608 497 608 451 q 608 434 597 381 l 583 313 q 737 542 854 542 q 894 542 913 518 q 933 494 933 444 q 933 421 924 377 l 875 126 q 867 86 867 57 q 867 41 876 38 q 885 34 937 31 l 946 30 l 939 0 l 753 0 l 834 406 q 837 424 837 434 q 837 453 831 462 q 824 471 811 471 q 771 471 699 402 q 626 333 574 246 l 524 0 l 428 0 l 509 406 q 512 424 512 434 q 512 453 506 462 q 499 471 486 471 q 446 471 374 402 q 301 333 247 244 l 199 0 z"},"#":{"x_min":0,"x_max":608,"ha":608,"o":"m 83 0 l 188 223 l 70 223 l 77 271 l 211 271 l 296 452 l 116 452 l 122 500 l 319 500 l 424 723 l 479 723 l 374 500 l 510 500 l 615 723 l 669 723 l 564 500 l 683 500 l 676 452 l 542 452 l 457 271 l 637 271 l 630 223 l 434 223 l 329 0 l 274 0 l 379 223 l 243 223 l 138 0 z m 266 271 l 402 271 l 487 452 l 351 452 z"},",":{"x_min":0,"x_max":265,"ha":265,"o":"m 117 0 l 72 0 l 97 121 l 218 121 l 196 12 q 162 -157 40 -157 l 46 -126 q 98 -126 112 -36 z"},"n":{"x_min":0,"x_max":631,"ha":631,"o":"m 103 0 l 183 404 q 191 444 191 473 q 191 489 182 492 q 173 496 121 500 l 112 500 l 118 530 l 305 530 l 261 313 q 324 419 398 480 q 473 542 537 542 q 579 542 600 519 q 622 497 622 451 q 622 428 612 381 l 562 126 q 554 86 554 57 q 554 41 563 38 q 572 34 624 31 l 633 30 l 627 0 l 440 0 l 519 395 q 523 421 523 436 q 523 453 515 461 q 506 470 489 470 q 410 470 247 240 l 199 0 z"},"h":{"x_min":0,"x_max":631,"ha":631,"o":"m 103 0 l 231 645 q 239 685 239 714 q 239 730 230 733 q 221 737 168 740 l 160 741 l 166 771 l 353 771 l 261 313 q 324 419 398 480 q 473 542 537 542 q 579 542 600 519 q 622 497 622 451 q 622 428 612 381 l 562 126 q 554 86 554 57 q 554 41 563 38 q 572 34 624 31 l 633 30 l 627 0 l 440 0 l 519 395 q 523 421 523 436 q 523 453 515 461 q 506 470 489 470 q 410 470 247 240 l 199 0 z"},"z":{"x_min":0,"x_max":536,"ha":536,"o":"m 50 0 l 57 36 l 456 494 l 303 494 q 245 494 229 488 q 214 481 208 453 q 204 439 198 418 l 196 410 l 145 410 l 168 530 l 574 530 l 568 497 l 163 36 l 348 36 q 420 36 434 42 q 448 47 456 80 q 457 84 464 111 l 467 121 l 515 121 l 491 0 z"},"B":{"x_min":0,"x_max":606,"ha":606,"o":"m 427 370 q 513 353 556 312 q 599 271 599 206 q 599 113 528 57 q 456 0 339 0 l 23 0 l 29 30 l 39 31 q 100 35 113 47 q 125 60 139 126 l 232 596 q 240 637 240 666 q 240 682 231 685 q 222 688 170 692 l 161 693 l 167 723 l 397 723 q 525 723 582 691 q 638 660 638 588 q 638 513 581 453 q 523 394 427 370 z m 287 358 l 238 129 q 227 69 228 64 q 234 36 295 36 q 381 36 438 87 q 494 138 494 216 q 494 282 446 320 q 397 358 313 358 z m 293 391 l 319 391 q 420 391 479 442 q 537 493 537 582 q 537 641 500 666 q 462 690 373 690 l 353 690 z"},"K":{"x_min":0,"x_max":698,"ha":698,"o":"m 289 365 l 241 126 q 233 86 233 57 q 233 42 243 38 q 252 34 297 31 l 307 30 l 301 0 l 23 0 l 29 30 l 39 31 q 100 35 113 47 q 125 60 139 126 l 232 596 q 240 637 240 666 q 240 682 231 685 q 222 688 170 692 l 161 693 l 167 723 l 450 723 l 444 693 l 435 692 q 374 688 361 676 q 348 663 335 596 l 290 368 l 554 596 q 639 679 639 686 q 639 693 577 693 l 565 693 l 571 723 l 780 723 l 774 693 l 765 692 q 728 690 723 689 q 709 686 603 593 l 381 404 l 573 124 q 627 43 644 37 q 656 33 685 31 l 693 30 l 688 0 l 421 0 l 427 30 l 438 30 q 495 30 495 43 q 495 55 449 128 z"},"R":{"x_min":0,"x_max":686,"ha":686,"o":"m 521 0 l 364 340 l 283 340 l 241 126 q 233 86 233 57 q 233 41 242 38 q 251 34 303 31 l 312 30 l 306 0 l 23 0 l 29 30 l 38 31 q 99 35 112 47 q 125 60 139 126 l 232 596 q 240 637 240 666 q 240 682 231 685 q 222 688 170 692 l 161 693 l 167 723 l 338 723 l 478 726 q 571 726 617 691 q 663 655 663 584 q 663 509 609 447 q 556 384 464 352 l 575 125 q 611 57 624 45 q 636 34 677 31 l 686 30 l 680 0 z m 290 373 l 331 372 q 433 372 494 428 q 555 485 555 579 q 555 634 520 662 q 485 690 416 690 l 353 690 z"},"T":{"x_min":0,"x_max":663,"ha":663,"o":"m 417 684 l 301 684 q 242 684 225 677 q 208 669 202 643 q 197 616 192 600 l 190 590 l 139 590 l 165 723 l 785 723 l 759 590 l 708 590 l 709 600 q 712 618 717 643 q 719 654 719 665 q 719 684 634 684 l 519 684 l 408 126 q 400 86 400 57 q 400 42 411 38 q 423 33 470 31 l 491 30 l 485 0 l 178 0 l 184 30 l 205 31 q 244 31 270 39 q 289 44 306 126 z"},"P":{"x_min":0,"x_max":579,"ha":579,"o":"m 167 723 l 328 723 l 443 725 l 491 726 q 664 726 664 581 q 664 458 570 379 q 477 300 330 300 l 275 300 l 241 126 q 232 86 232 57 q 232 42 244 38 q 255 33 303 31 l 324 30 l 318 0 l 23 0 l 29 30 l 39 31 q 100 35 113 47 q 125 60 139 126 l 232 596 q 240 637 240 666 q 240 682 231 685 q 222 688 170 692 l 161 693 z m 282 334 l 323 334 q 425 334 490 403 q 556 471 556 577 q 556 690 418 690 l 353 690 z"},"|":{"x_min":0,"x_max":241,"ha":241,"o":"m 59 -145 l 241 771 l 307 771 l 125 -145 z"},"t":{"x_min":0,"x_max":355,"ha":355,"o":"m 317 6 q 276 -12 240 -12 q 186 -12 152 20 q 119 53 119 105 q 119 126 125 155 l 191 491 l 110 491 l 118 530 l 199 530 l 218 626 l 320 654 l 295 530 l 431 530 l 422 491 l 288 491 l 218 142 q 213 115 213 91 q 213 62 227 47 q 240 33 268 33 q 292 33 326 46 z"},"M":{"x_min":0,"x_max":865,"ha":865,"o":"m 783 645 l 444 83 l 409 83 l 285 593 l 192 126 q 185 86 185 57 q 185 41 194 38 q 203 34 255 31 l 264 30 l 258 0 l 23 0 l 29 30 l 39 31 q 101 35 112 45 q 122 55 139 126 l 235 596 q 243 636 243 666 q 243 682 234 685 q 225 688 172 692 l 164 693 l 169 723 l 353 723 l 479 206 l 793 723 l 984 723 l 979 693 l 969 692 q 908 688 895 676 q 882 663 869 596 l 776 126 q 768 86 768 57 q 768 41 777 38 q 786 34 838 31 l 847 30 l 841 0 l 565 0 l 571 30 l 581 31 q 642 35 655 48 q 668 60 681 126 z"},"g":{"x_min":0,"x_max":602,"ha":602,"o":"m 81 -178 l 45 -42 q 179 -161 298 -161 q 349 -161 374 -118 q 400 -76 425 47 l 465 251 q 405 146 329 82 q 252 17 188 17 q 143 17 114 50 q 85 82 85 133 q 85 206 124 292 q 162 378 222 440 q 320 542 434 542 q 447 542 469 539 q 490 536 521 530 l 617 530 l 543 162 q 506 -21 471 -78 q 392 -205 213 -205 q 158 -205 81 -178 z m 481 328 l 508 466 q 481 480 452 487 q 424 494 394 494 q 319 494 274 434 q 188 318 188 156 q 188 123 200 106 q 211 89 234 89 q 325 89 481 328 z"},"j":{"x_min":0,"x_max":343,"ha":343,"o":"m -79 -187 l -53 -57 l -5 -57 l -6 -66 q -14 -123 -14 -126 q -14 -147 3 -158 q 19 -168 52 -168 q 104 -168 126 -136 q 148 -104 170 9 l 249 404 q 257 443 257 473 q 257 489 248 492 q 239 496 187 500 l 178 500 l 184 530 l 371 530 l 279 70 q 225 -205 20 -205 q -2 -205 -27 -200 q -52 -196 -79 -187 z m 293 626 l 312 723 l 409 723 l 390 626 z"},"i":{"x_min":0,"x_max":289,"ha":289,"o":"m 103 0 l 183 404 q 191 444 191 473 q 191 489 182 492 q 173 496 121 500 l 112 500 l 118 530 l 305 530 l 224 126 q 216 86 216 57 q 216 41 225 38 q 234 34 287 31 l 295 30 l 290 0 z m 227 626 l 247 723 l 343 723 l 324 626 z"},"y":{"x_min":0,"x_max":558,"ha":558,"o":"m -2 -193 q 88 -130 241 12 q 236 126 213 252 q 189 377 164 434 q 143 480 130 488 q 117 497 62 500 l 51 500 l 57 530 l 234 530 q 310 351 321 110 l 381 187 q 470 300 500 353 q 529 405 529 450 q 529 496 491 530 l 611 530 q 622 508 622 488 q 622 447 595 402 q 568 356 481 253 l 296 32 q 186 -101 131 -193 z"},"@":{"x_min":0,"x_max":861,"ha":861,"o":"m 610 21 q 524 -18 442 -18 q 300 -18 208 67 q 116 151 116 282 q 116 445 236 583 q 373 741 578 741 q 716 741 808 653 q 901 565 901 435 q 901 318 828 231 q 755 144 657 144 q 614 144 593 161 q 572 178 572 211 q 572 221 588 290 l 592 310 l 582 310 q 534 228 487 186 q 439 145 394 145 q 349 145 326 173 q 304 201 304 258 q 304 374 385 473 q 465 572 560 572 q 583 572 641 557 q 644 556 654 553 l 699 553 l 644 273 q 638 246 638 226 q 638 204 651 192 q 663 181 688 181 q 755 181 813 262 q 871 343 871 440 q 871 555 785 633 q 699 711 573 711 q 409 711 278 581 q 146 450 146 288 q 146 167 229 90 q 312 12 441 12 q 518 12 599 49 z m 597 400 l 617 503 q 598 514 575 519 q 553 524 529 524 q 463 524 419 455 q 375 385 375 282 q 375 243 386 224 q 397 205 420 205 q 456 205 500 253 q 544 302 597 400 z"},".":{"x_min":0,"x_max":265,"ha":265,"o":"m 72 0 l 96 121 l 217 121 l 193 0 z"},"p":{"x_min":0,"x_max":608,"ha":608,"o":"m 64 -193 l 183 404 q 191 444 191 473 q 191 489 182 492 q 172 496 121 500 l 111 500 l 117 530 l 304 530 l 260 307 q 320 414 395 478 q 470 542 534 542 q 586 542 613 512 q 639 481 639 420 q 639 261 527 125 q 415 -12 285 -12 q 259 -12 199 0 l 160 -193 z m 245 234 l 210 64 q 270 35 332 35 q 403 35 449 102 q 485 154 510 242 q 536 330 536 400 q 536 436 525 453 q 513 471 490 471 q 396 471 245 234 z"},"X":{"x_min":0,"x_max":624,"ha":624,"o":"m -23 0 l -18 30 l -8 31 q 33 33 52 46 q 71 59 132 123 l 342 357 l 246 598 q 215 671 206 680 q 196 689 150 692 l 142 693 l 147 723 l 410 723 l 403 693 l 395 693 q 332 693 332 664 q 332 650 341 628 q 350 609 355 595 l 423 429 l 574 598 q 635 676 635 684 q 635 693 587 693 l 578 693 l 584 723 l 771 723 l 765 693 l 756 692 q 716 689 698 677 q 679 665 622 600 l 443 399 l 556 124 q 583 58 595 45 q 606 33 642 31 l 651 30 l 645 0 l 380 0 l 386 30 l 396 30 q 467 30 467 55 q 467 66 444 126 l 364 324 l 187 127 q 126 61 126 47 q 126 30 182 30 l 190 30 l 185 0 z"},"*":{"x_min":0,"x_max":458,"ha":458,"o":"m 168 414 l 298 526 q 304 512 320 504 l 225 361 z m 187 624 l 310 568 q 296 557 296 534 l 151 553 z m 402 723 l 354 573 q 340 577 334 577 q 328 577 318 573 l 329 723 z m 522 548 l 370 530 q 371 537 371 542 q 371 552 360 565 l 510 620 z m 364 363 l 331 502 q 351 502 363 517 l 436 405 z"},"Y":{"x_min":0,"x_max":663,"ha":663,"o":"m 341 325 l 234 591 q 229 605 214 646 q 204 675 193 683 q 182 690 146 692 l 137 693 l 143 723 l 405 723 l 399 693 l 384 692 q 344 690 333 686 q 323 681 323 665 q 323 647 345 591 l 432 367 l 613 589 q 672 662 672 675 q 672 691 640 691 q 632 691 622 692 l 613 693 l 619 723 l 803 723 l 797 693 l 788 692 q 750 690 744 687 q 732 683 655 588 l 442 327 l 404 126 q 396 85 396 57 q 396 41 405 38 q 414 34 466 31 l 475 30 l 469 0 l 186 0 l 192 30 l 201 31 q 264 35 276 49 q 289 62 305 145 z"},"c":{"x_min":0,"x_max":487,"ha":487,"o":"m 455 46 q 349 -12 247 -12 q 170 -12 127 37 q 84 86 84 173 q 84 317 186 430 q 287 542 417 542 q 446 542 476 536 q 507 531 539 520 l 512 386 l 464 386 l 465 395 q 466 407 470 426 q 472 437 472 444 q 472 473 447 487 q 422 501 372 501 q 293 501 240 412 q 187 324 187 192 q 187 118 217 80 q 248 43 310 43 q 363 43 463 87 z"},"!":{"x_min":0,"x_max":265,"ha":265,"o":"m 84 0 l 104 96 l 200 96 l 181 0 z m 156 193 l 200 578 l 229 723 l 325 723 l 296 578 l 186 193 z"},"/":{"x_min":0,"x_max":458,"ha":458,"o":"m -28 -145 l 546 771 l 610 771 l 37 -145 z"},"[":{"x_min":0,"x_max":310,"ha":310,"o":"m 47 -145 l 229 771 l 422 771 l 416 741 l 307 741 l 137 -114 l 246 -114 l 240 -145 z"},"6":{"x_min":0,"x_max":608,"ha":608,"o":"m 249 401 q 339 470 425 470 q 506 470 557 421 q 607 373 607 294 q 607 171 521 76 q 434 -18 320 -18 q 224 -18 170 48 q 117 114 117 232 q 117 333 154 442 q 192 550 253 623 q 351 741 488 741 q 573 741 657 704 l 634 587 l 585 587 l 587 600 q 594 647 594 655 q 594 676 559 693 q 524 710 482 710 q 403 710 341 628 q 279 546 249 401 z m 213 196 q 213 105 243 60 q 273 15 333 15 q 403 15 457 99 q 511 183 511 293 q 511 362 483 396 q 455 431 398 431 q 312 431 262 368 q 213 305 213 196 z"},"r":{"x_min":0,"x_max":470,"ha":470,"o":"m 103 0 l 183 404 q 191 444 191 473 q 191 489 182 492 q 173 496 121 500 l 112 500 l 118 530 l 305 530 l 261 313 q 402 542 532 542 q 545 542 556 538 l 515 428 q 493 438 471 438 q 378 438 249 248 l 199 0 z"},"2":{"x_min":0,"x_max":608,"ha":608,"o":"m 86 0 l 97 54 q 151 164 310 288 l 359 327 q 539 466 539 580 q 539 645 508 677 q 477 710 416 710 q 353 710 305 678 q 284 665 266 593 l 263 584 l 215 584 l 237 693 q 286 717 338 729 q 389 741 443 741 q 535 741 588 699 q 641 657 641 583 q 641 513 600 459 q 559 406 455 341 l 379 293 q 204 183 204 84 l 540 84 l 517 0 z"},"{":{"x_min":0,"x_max":337,"ha":337,"o":"m 430 771 l 424 741 q 360 733 337 702 q 315 670 315 588 l 314 550 q 314 451 274 386 q 233 322 164 310 q 215 274 228 255 q 242 235 242 197 q 242 150 204 60 l 181 3 q 167 -31 167 -52 q 167 -78 189 -96 q 211 -115 243 -115 q 249 -115 254 -114 l 248 -145 q 175 -145 133 -114 q 91 -83 91 -30 q 91 14 120 83 l 140 131 q 168 200 168 238 q 168 295 110 295 l 85 295 l 91 325 l 114 325 q 173 325 199 365 q 225 405 225 497 l 225 528 q 225 771 430 771 z"},"9":{"x_min":0,"x_max":608,"ha":608,"o":"m 513 322 q 423 253 336 253 q 255 253 205 302 q 154 351 154 429 q 154 552 241 646 q 328 741 441 741 q 538 741 591 675 q 645 608 645 490 q 645 389 607 281 q 570 173 509 100 q 411 -18 274 -18 q 188 -18 105 20 l 128 136 l 176 136 l 174 124 q 168 76 168 68 q 168 49 203 31 q 239 13 276 13 q 358 13 420 94 q 482 175 513 322 z m 549 527 q 549 618 519 663 q 489 708 429 708 q 358 708 304 624 q 250 540 250 430 q 250 361 279 327 q 307 292 364 292 q 450 292 499 355 q 549 417 549 527 z"}," ":{"x_min":0,"x_max":304,"ha":304,"o":""},"I":{"x_min":0,"x_max":325,"ha":325,"o":"m 310 30 l 304 0 l 21 0 l 27 30 l 36 31 q 97 35 110 47 q 123 60 137 126 l 230 596 q 238 637 238 666 q 238 682 229 685 q 220 688 168 692 l 159 693 l 165 723 l 448 723 l 442 693 l 433 692 q 372 688 359 676 q 346 663 333 596 l 239 126 q 231 86 231 57 q 231 41 240 38 q 249 34 301 31 z"},"H":{"x_min":0,"x_max":776,"ha":776,"o":"m 287 354 l 241 126 q 233 86 233 57 q 233 41 242 38 q 251 34 304 31 l 312 30 l 307 0 l 23 0 l 29 30 l 39 31 q 100 35 113 47 q 125 60 139 126 l 232 596 q 241 637 241 666 q 241 682 231 685 q 222 688 170 692 l 161 693 l 167 723 l 451 723 l 444 693 l 436 692 q 374 688 361 676 q 348 663 335 596 l 294 394 l 638 394 l 679 596 q 687 637 687 666 q 687 682 677 685 q 668 688 616 692 l 607 693 l 613 723 l 896 723 l 891 693 l 881 692 q 820 688 807 676 q 794 663 781 596 l 688 126 q 680 86 680 57 q 680 41 689 38 q 698 34 750 31 l 759 30 l 753 0 l 470 0 l 476 30 l 485 31 q 546 35 559 47 q 572 60 585 126 l 630 354 z"},"4":{"x_min":0,"x_max":608,"ha":608,"o":"m 393 202 l 67 202 l 78 256 l 534 732 l 583 732 l 491 274 l 594 274 l 573 202 l 477 202 l 462 126 q 454 86 454 57 q 454 41 463 38 q 473 34 524 31 l 533 30 l 527 0 l 256 0 l 262 30 l 277 31 q 337 34 351 47 q 364 61 377 126 z m 138 274 l 407 274 l 478 630 z"},"~":{"x_min":0,"x_max":608,"ha":608,"o":"m 82 214 q 124 380 241 380 q 278 380 358 333 l 413 302 q 480 264 514 264 q 569 264 610 358 l 641 358 q 593 199 480 199 q 434 199 364 239 l 311 270 q 235 314 208 314 q 152 314 112 214 z"},"D":{"x_min":0,"x_max":770,"ha":770,"o":"m 23 0 l 29 30 l 39 31 q 100 35 113 47 q 125 60 139 126 l 232 596 q 240 637 240 666 q 240 682 231 685 q 222 688 170 692 l 161 693 l 167 723 l 392 723 l 504 724 l 522 724 q 662 724 731 661 q 801 598 801 471 q 801 267 677 133 q 553 0 362 0 z m 354 690 l 241 126 q 232 74 233 69 q 240 33 320 33 q 487 33 590 154 q 693 275 693 470 q 693 592 630 641 q 567 690 408 690 z"},"^":{"x_min":0,"x_max":608,"ha":608,"o":"m 78 193 l 448 723 l 608 193 l 550 193 l 429 601 l 143 193 z"},"0":{"x_min":0,"x_max":608,"ha":608,"o":"m 306 -18 q 218 -18 163 49 q 108 116 108 223 q 108 431 209 586 q 309 741 443 741 q 534 741 589 675 q 645 608 645 500 q 645 290 544 136 q 443 -18 306 -18 z m 207 192 q 207 103 234 57 q 262 12 316 12 q 407 12 476 167 q 545 322 545 525 q 545 618 519 665 q 492 711 438 711 q 345 711 276 556 q 207 401 207 192 z"},"F":{"x_min":0,"x_max":550,"ha":550,"o":"m 286 351 l 241 126 q 235 94 235 63 q 235 44 243 39 q 250 33 278 33 l 315 31 l 325 30 l 319 0 l 23 0 l 29 30 l 39 31 q 100 35 113 47 q 125 60 139 126 l 232 596 q 240 637 240 666 q 240 682 231 685 q 222 688 170 692 l 161 693 l 167 723 l 661 723 l 636 596 l 582 596 l 583 605 l 593 660 q 593 684 510 684 l 352 684 l 294 390 l 426 390 q 469 390 480 394 q 492 399 496 418 q 497 422 502 441 l 504 450 l 543 450 l 512 290 l 473 290 l 474 299 q 477 322 477 332 q 477 351 418 351 z"},"`":{"x_min":0,"x_max":560,"ha":560,"o":"m 316 771 l 426 771 l 495 626 l 457 626 z"},"k":{"x_min":0,"x_max":560,"ha":560,"o":"m 90 0 l 219 645 q 227 685 227 714 q 227 730 218 733 q 208 737 156 740 l 147 741 l 153 771 l 340 771 l 246 295 l 253 295 q 491 417 491 500 q 491 518 476 530 l 574 536 q 581 523 581 512 q 581 439 333 310 q 432 148 509 61 q 533 34 583 31 l 594 31 l 588 0 l 428 0 q 331 118 249 274 l 241 274 l 185 0 z"},"u":{"x_min":0,"x_max":629,"ha":629,"o":"m 431 0 l 474 217 q 336 -12 199 -12 q 156 -12 135 11 q 114 34 114 80 q 114 103 123 148 l 174 404 q 182 444 182 473 q 182 489 173 492 q 164 496 111 500 l 103 500 l 108 530 l 295 530 l 218 141 q 212 109 212 100 q 212 83 221 75 q 230 66 247 66 q 319 66 489 293 l 537 530 l 633 530 l 552 126 q 544 86 544 57 q 544 41 553 38 q 562 34 615 31 l 624 30 l 618 0 z"},"]":{"x_min":0,"x_max":310,"ha":310,"o":"m 389 771 l 207 -145 l 14 -145 l 20 -114 l 128 -114 l 298 741 l 190 741 l 196 771 z"},"U":{"x_min":0,"x_max":727,"ha":727,"o":"m 152 693 l 158 723 l 441 723 l 435 693 l 426 692 q 365 688 352 676 q 339 663 325 596 l 253 235 q 246 198 246 164 q 246 94 285 55 q 324 17 394 17 q 575 17 626 277 l 690 596 q 698 637 698 666 q 698 682 689 685 q 680 688 628 692 l 619 693 l 625 723 l 856 723 l 851 693 l 841 692 q 780 688 767 676 q 754 663 741 596 l 676 266 q 620 -18 382 -18 q 272 -18 210 33 q 147 83 147 173 q 147 216 158 270 l 223 596 q 231 637 231 666 q 231 682 222 685 q 213 688 161 692 z"},"o":{"x_min":0,"x_max":560,"ha":560,"o":"m 255 -12 q 171 -12 129 34 q 87 80 87 171 q 87 318 185 430 q 282 542 411 542 q 497 542 539 496 q 582 451 582 359 q 582 211 483 100 q 385 -12 255 -12 z m 280 25 q 357 25 417 128 q 476 231 476 365 q 476 435 453 470 q 431 505 385 505 q 310 505 251 399 q 192 294 192 157 q 192 99 217 62 q 241 25 280 25 z"},"N":{"x_min":0,"x_max":762,"ha":762,"o":"m 652 -9 l 613 -9 l 277 594 l 185 126 q 176 86 176 57 q 176 41 186 38 q 195 34 247 31 l 255 30 l 250 0 l 23 0 l 29 30 l 38 31 q 99 35 112 47 q 125 60 139 126 l 231 596 q 240 637 240 666 q 240 682 230 685 q 221 688 169 692 l 161 693 l 167 723 l 318 723 l 638 147 l 727 596 q 735 637 735 666 q 735 682 726 685 q 717 688 665 692 l 656 693 l 662 723 l 887 723 l 881 693 l 872 692 q 811 688 798 676 q 785 663 772 596 z"},"+":{"x_min":0,"x_max":608,"ha":608,"o":"m 282 24 l 329 262 l 91 262 l 102 316 l 340 316 l 387 554 l 441 554 l 394 316 l 632 316 l 622 262 l 383 262 l 336 24 z"},"G":{"x_min":0,"x_max":756,"ha":756,"o":"m 646 33 q 488 -18 381 -18 q 253 -18 182 54 q 111 126 111 257 q 111 462 244 602 q 377 741 572 741 q 623 741 674 735 q 725 729 776 716 l 744 584 l 689 584 l 691 594 q 691 598 696 623 q 699 640 699 652 q 699 680 666 693 q 634 707 569 707 q 423 707 321 573 q 220 439 220 248 q 220 142 274 84 q 329 26 427 26 q 482 26 546 48 l 574 184 q 582 225 582 254 q 582 270 572 273 q 563 276 511 280 l 502 281 l 508 311 l 789 311 l 783 281 l 773 280 q 704 275 696 257 q 678 216 672 184 z"},"q":{"x_min":0,"x_max":600,"ha":600,"o":"m 375 -193 l 458 223 q 397 116 322 52 q 248 -12 183 -12 q 131 -12 105 19 q 79 49 79 110 q 79 269 190 406 q 302 542 432 542 q 446 542 467 539 q 489 536 519 530 l 615 530 l 471 -193 z m 472 296 l 507 468 q 479 482 449 490 q 419 497 388 497 q 315 497 270 430 q 233 376 207 289 q 181 201 181 130 q 181 95 192 77 q 204 60 228 60 q 321 60 472 296 z"},"d":{"x_min":0,"x_max":608,"ha":608,"o":"m 413 0 l 458 223 q 397 116 322 52 q 248 -12 183 -12 q 131 -12 105 19 q 79 49 79 110 q 79 269 190 406 q 302 542 432 542 q 459 542 519 530 l 541 645 q 549 685 549 714 q 549 730 540 733 q 531 737 479 740 l 470 741 l 476 771 l 663 771 l 535 126 q 526 86 526 57 q 526 41 536 38 q 545 34 597 31 l 605 30 l 600 0 z m 472 296 l 507 468 q 450 497 388 497 q 315 497 270 430 q 233 376 207 289 q 181 201 181 130 q 181 95 192 77 q 204 60 228 60 q 321 60 472 296 z"},"1":{"x_min":0,"x_max":608,"ha":608,"o":"m 498 729 l 378 126 q 370 86 370 57 q 370 42 382 38 q 394 33 440 31 l 491 30 l 485 0 l 118 0 l 124 30 l 181 31 q 242 31 254 42 q 267 54 281 126 l 373 586 l 384 649 q 384 669 353 669 q 344 669 297 661 l 247 652 l 253 682 z"},"5":{"x_min":0,"x_max":608,"ha":608,"o":"m 118 3 l 143 126 l 190 126 l 189 118 q 183 69 183 65 q 183 43 212 29 q 241 14 282 14 q 361 14 417 83 q 473 152 473 251 q 473 334 427 376 q 382 417 291 417 q 257 417 210 410 l 272 723 l 655 723 l 639 639 l 286 639 l 247 445 q 286 449 312 449 q 435 449 505 397 q 575 346 575 255 q 575 134 488 58 q 402 -18 263 -18 q 228 -18 191 -13 q 155 -7 118 3 z"}}}
